<svg width="128" height="128" viewBox="0 0 128 128" fill="none" xmlns="http://www.w3.org/2000/svg">
<path fill-rule="evenodd" clip-rule="evenodd" d="M50.6667 48L42.6667 45.3333L50.6667 42.6667L53.3334 32L56.0001 42.6667L64.0001 45.3333L56.0001 48L53.3334 58.6667L50.6667 48Z" fill="#1494C6"/>
<path fill-rule="evenodd" clip-rule="evenodd" d="M81.7949 34.3987L75.9256 37.3333L81.6944 40.2176L84 47.1344L86.3056 40.2176L92.0744 37.3333L86.2051 34.3987L84 26.9013L81.7949 34.3987ZM77.3333 30.6667L64 37.3333L77.3333 44L84 64L90.6667 44L104 37.3333L90.6667 30.6667L84 8L77.3333 30.6667Z" fill="#1494C6"/>
<path fill-rule="evenodd" clip-rule="evenodd" d="M13.3333 69.3334C13.3333 67.8606 14.5272 66.6667 15.9999 66.6667H31.9999C33.4727 66.6667 34.6666 67.8606 34.6666 69.3334V70.2787C37.9239 69.1174 41.193 67.9227 42.3125 67.4222C43.4151 66.9289 44.6967 66.7587 45.7762 66.6977C46.909 66.6334 48.0866 66.6777 49.121 66.7561C50.1637 66.8353 51.1106 66.9534 51.7946 67.051C52.1381 67.1001 52.4188 67.1443 52.6165 67.1771C52.7157 67.1934 52.7941 67.2067 52.8493 67.2166L52.9146 67.2281L52.9338 67.2315L52.9429 67.2331C52.9434 67.2331 52.9437 67.2334 52.4637 69.8563L52.9429 67.2331C52.9743 67.2387 53.0061 67.2451 53.037 67.2521L71.7469 71.3707C71.8226 71.3873 71.8975 71.4073 71.9717 71.4305C71.9711 71.4305 71.9719 71.4307 71.9717 71.4305L71.9762 71.4321L72.005 71.4409L72.137 71.4803C72.257 71.5158 72.4389 71.5681 72.6727 71.6315C73.1418 71.7593 73.8157 71.931 74.6189 72.103C76.2482 72.4518 78.3087 72.7793 80.2362 72.7793C81.9375 72.7793 83.697 73.3961 84.6461 75.1011C85.4693 76.5806 85.2794 78.2137 84.9677 79.3515C84.5479 80.8827 83.6421 82.4974 82.505 83.8174C84.0722 83.2502 85.809 82.5515 87.6863 81.7958L87.8562 81.7275C92.4383 79.8827 97.845 77.7059 102.611 76.9323C108.005 76.0569 111.916 77.9691 113.698 81.3825C115.297 84.4449 114.916 88.4582 112.531 90.8582C111.935 91.4577 111.022 92.0916 110.094 92.6825C109.105 93.3118 107.885 94.0238 106.528 94.779C103.811 96.2915 100.445 98.031 97.0645 99.7134C90.3661 103.047 83.3562 106.283 81.1381 107.08C77.3605 108.438 72.9594 108.002 68.8754 107.598C68.7559 107.586 68.6365 107.574 68.5175 107.562C67.3018 107.442 66.0837 107.322 64.8367 107.23C59.4231 106.827 55.2751 105.534 51.4279 104.333L51.3629 104.313C47.2247 103.022 43.4263 101.847 38.3261 101.645C37.645 101.618 36.2778 101.638 34.6666 101.68V105.333C34.6666 106.806 33.4727 108 31.9999 108H15.9999C14.5272 108 13.3333 106.806 13.3333 105.333V69.3334ZM58.8951 85.1542L58.4255 87.779C57.0599 87.5347 56.1095 86.2838 56.2405 84.9027C56.3714 83.5214 57.5394 82.4713 58.9269 82.4875L74.0314 82.667C74.0429 82.667 74.0543 82.6673 74.0655 82.6675C74.0786 82.667 74.1053 82.6657 74.1447 82.6622C74.2567 82.6523 74.473 82.6249 74.7754 82.5478C75.3749 82.3953 76.3439 82.0409 77.5362 81.2051C77.9602 80.9083 78.4647 80.399 78.9202 79.7497C79.3266 79.1699 79.6175 78.587 79.7741 78.1078C77.4714 78.0617 75.1943 77.6803 73.5021 77.3179C72.5877 77.1222 71.8183 76.9262 71.273 76.7779C71.0002 76.7038 70.7821 76.6411 70.6293 76.5961C70.5773 76.5809 70.5325 76.5675 70.4959 76.5563L51.9434 72.4723L51.9325 72.4705C51.8922 72.4635 51.8301 72.4529 51.7479 72.4393C51.5837 72.4121 51.3415 72.3737 51.041 72.3307C50.4367 72.2446 49.6114 72.1419 48.7173 72.0742C47.8148 72.0057 46.8914 71.9763 46.0781 72.0225C45.2119 72.0715 44.7026 72.1955 44.4898 72.2907C42.6911 73.0953 36.7967 75.1921 32.8837 76.5667C32.0679 76.8531 31.1637 76.7265 30.4581 76.2265C29.7525 75.7265 29.3333 74.9153 29.3333 74.0507V72.0001H18.6666V102.667H29.3333V99.0945C29.3333 97.6574 30.4719 96.4787 31.9082 96.4294C34.4575 96.3417 37.2682 96.2662 38.5367 96.3163C44.3757 96.547 48.7541 97.9129 52.8797 99.1995L52.9509 99.2219C56.8146 100.427 60.4589 101.556 65.2322 101.911C66.5482 102.009 67.8247 102.135 69.0277 102.253L69.041 102.255C73.6066 102.705 76.8122 102.967 79.3343 102.061C81.2087 101.387 87.9389 98.2977 94.6882 94.9387C98.0317 93.2747 101.317 91.5758 103.934 90.119C105.245 89.3894 106.364 88.7339 107.23 88.183C108.156 87.5939 108.613 87.2347 108.748 87.0987C109.287 86.5571 109.637 85.1281 108.97 83.851C108.487 82.9251 107.135 81.6011 103.466 82.1969C99.3479 82.8651 94.4629 84.8172 89.6781 86.7433L89.6215 86.7662C87.2511 87.7203 84.8997 88.667 82.8207 89.3526C80.8069 90.0169 78.6733 90.571 76.8629 90.4638C74.2215 90.3075 69.5554 89.6217 65.6733 89.0009C63.7053 88.6862 61.8949 88.3811 60.577 88.1545C59.9175 88.0414 59.381 87.9475 59.0087 87.8822L58.5783 87.8062L58.4285 87.7796C58.4285 87.7796 58.4255 87.779 58.8951 85.1542Z" fill="#1494C6"/>
</svg>
