<svg width="60" height="60" viewBox="0 0 60 60" fill="none" xmlns="http://www.w3.org/2000/svg">
<g clip-path="url(#clip0_314_430)">
<path d="M33.5691 12.3218C36.9662 12.3218 39.73 9.55805 39.73 6.16088C39.73 2.76372 36.9662 0 33.5691 0C30.1719 0 27.4082 2.76372 27.4082 6.16088C27.4082 9.55805 30.1719 12.3218 33.5691 12.3218ZM33.5691 1.03702C36.3944 1.03702 38.693 3.33555 38.693 6.16088C38.693 8.98622 36.3944 11.2847 33.5691 11.2847C30.7438 11.2847 28.4452 8.98622 28.4452 6.16088C28.4452 3.33555 30.7438 1.03702 33.5691 1.03702Z" fill="white"/>
<path d="M36.9535 38.7407C36.6758 38.8106 36.5074 39.0924 36.5774 39.3701L37.5159 43.0964C37.5751 43.3316 37.7863 43.4884 38.0184 43.4884C38.0602 43.4884 38.1029 43.4833 38.1454 43.4725C38.423 43.4026 38.5915 43.1208 38.5215 42.8431L37.5829 39.1168C37.513 38.8392 37.2316 38.6708 36.9535 38.7407Z" fill="white"/>
<path d="M57.9248 35.25H54.7671C56.3861 29.7831 56.0369 25.1958 53.7264 21.6089C51.9165 18.7994 49.3084 17.2284 47.3203 16.3822C47.2998 15.9516 47.1268 15.5272 46.7973 15.2005C46.0987 14.5077 44.9669 14.5124 44.2742 15.2112L40.4718 19.0459L39.6173 18.2554C39.395 15.0792 36.7805 12.6221 33.569 12.6221C30.6384 12.6221 28.0504 14.8646 27.549 17.8384C27.5442 17.8665 27.5418 17.895 27.5418 17.9234L27.5096 32.1173L7.68829 52.1047H2.29455C1.0799 52.1047 0.0917969 53.0929 0.0917969 54.3074V56.0843C0.0917969 57.2988 1.08002 58.287 2.29455 58.287H13.1444C14.359 58.287 15.3471 57.2988 15.3471 56.0843V54.3074C15.3471 53.0929 14.3589 52.1047 13.1444 52.1047H12.7675L27.0303 37.6874L21.5035 54.4639C21.163 55.4968 21.2452 56.6003 21.7348 57.5713C22.2245 58.5422 23.0629 59.2644 24.0959 59.6046C24.5174 59.7436 24.9453 59.8095 25.3667 59.8095C27.0768 59.8094 28.6731 58.7226 29.2369 57.012L33.211 44.9498L36.3045 56.9446C36.7683 58.7437 38.3883 60.0001 40.2439 60.0001C40.5861 60.0001 40.9292 59.9565 41.2633 59.8701C42.3164 59.5985 43.2008 58.9333 43.7535 57.9968C44.306 57.0602 44.4607 55.9645 44.189 54.9113L39.4011 36.3446C39.5562 35.8027 39.6356 35.2413 39.6356 34.6735V29.7495L43.557 25.4844C44.5368 24.4239 44.4742 22.7579 43.4156 21.7693L43.0929 21.4708L45.2279 19.3178C48.3554 20.6753 54.4157 24.7535 51.1971 35.2501H47.3114C46.2183 35.2501 45.3289 36.1395 45.3289 37.2327V54.4339C45.3289 55.5271 46.2183 56.4165 47.3114 56.4165H57.9249C59.018 56.4165 59.9074 55.5271 59.9074 54.4339V37.2325C59.9073 36.1394 59.018 35.25 57.9248 35.25ZM28.5787 17.9697C29.0077 15.5492 31.1916 13.6591 33.569 13.6591C35.7872 13.6591 37.6624 15.0727 38.333 17.0672L35.6931 14.625C35.2035 14.168 34.5653 13.9162 33.8959 13.9162C33.1683 13.9162 32.4661 14.2212 31.9698 14.753C30.9786 15.8146 31.036 17.485 32.0993 18.4776L36.7583 22.7909L28.5488 31.0692L28.5787 17.9697ZM14.3101 54.3074V54.6477H4.51536C4.22903 54.6477 3.99685 54.8797 3.99685 55.1662C3.99685 55.4527 4.22903 55.6847 4.51536 55.6847H14.3102V56.0843C14.3102 56.727 13.7872 57.25 13.1445 57.25H2.29455C1.65172 57.25 1.12882 56.7271 1.12882 56.0843V54.3074C1.12882 53.6646 1.65184 53.1417 2.29455 53.1417H13.1444C13.7872 53.1417 14.3101 53.6646 14.3101 54.3074ZM9.14853 52.1047L37.5199 23.4958L37.9079 23.855L34.3544 27.7101C33.8914 28.2059 33.6438 28.8476 33.6482 29.5233L11.3086 52.1047H9.14853ZM31.1878 37.1054L31.7716 39.3689C30.2823 38.8 29.1361 37.5482 28.7152 35.9843L33.9362 30.7068C34.0735 30.9749 34.2553 31.2215 34.4821 31.4333C34.7881 31.7189 35.1523 31.9242 35.5459 32.0382C35.4097 32.0244 35.2722 32.0165 35.133 32.0165C34.7909 32.0165 34.448 32.0601 34.1139 32.1464C31.9399 32.707 30.6273 34.9316 31.1878 37.1054ZM28.2519 56.6874C27.7283 58.2763 26.0093 59.143 24.4204 58.6198C24.3581 58.5992 24.2982 58.5738 24.2378 58.5497L28.2238 46.4107C28.3131 46.1386 28.1649 45.8456 27.8929 45.7563C27.6211 45.6669 27.3279 45.8151 27.2385 46.0871L23.3319 57.9843C23.06 57.7375 22.8311 57.4423 22.6608 57.1044C22.2959 56.3808 22.2346 55.5584 22.4884 54.7887L28.1671 37.4379C28.9528 38.9734 30.3703 40.1221 32.077 40.5532L32.7315 43.0911L28.2519 56.6874ZM42.8604 57.4698C42.4485 58.1678 41.7895 58.6636 41.0045 58.866C40.7549 58.9303 40.499 58.963 40.2441 58.963C38.8615 58.963 37.6545 58.0265 37.3088 56.6856L32.192 36.8464C31.7743 35.2265 32.7526 33.5684 34.3729 33.1505C34.6224 33.0862 34.8783 33.0535 35.133 33.0535C36.5157 33.0535 37.7229 33.9901 38.0687 35.3311L43.1849 55.1703C43.3874 55.9553 43.2722 56.7719 42.8604 57.4698ZM38.5986 33.9556C38.0397 33.0463 37.1414 32.3883 36.1 32.1333C36.1595 32.1374 36.2191 32.1417 36.2792 32.1417C37.0068 32.1417 37.709 31.8367 38.208 31.3021L38.5986 30.8773V33.9556ZM42.7944 24.7816L37.4473 30.5974C37.1419 30.9248 36.7272 31.1048 36.2795 31.1048C36.2795 31.1048 36.2795 31.1048 36.2793 31.1048C35.8736 31.1048 35.4866 30.9522 35.1899 30.6753C34.8779 30.3841 34.6982 29.9889 34.6835 29.5625C34.6689 29.1362 34.8212 28.7297 35.1147 28.4155L39.0212 24.1777C39.215 23.9673 39.202 23.64 38.9922 23.4456L32.8057 17.7184C32.162 17.1174 32.1271 16.1046 32.7282 15.4608C33.0337 15.1335 33.4485 14.9534 33.8963 14.9534C34.3019 14.9534 34.6889 15.106 34.9875 15.3848L42.7098 22.5292C43.3507 23.1276 43.3892 24.1379 42.7944 24.7816ZM41.2335 19.7506L45.0106 15.9414C45.3006 15.6491 45.7745 15.6469 46.0671 15.9369C46.3597 16.227 46.3617 16.7011 46.0717 16.9937L42.3313 20.766L41.2335 19.7506ZM46.0073 18.5315L46.8082 17.7239C46.907 17.6242 46.9899 17.5149 47.0603 17.4001C50.6206 18.966 57.2769 23.5617 53.6828 35.2501H52.2805C55.4209 24.5703 49.4602 20.1427 46.0073 18.5315ZM47.3113 36.287H57.9248C58.4461 36.287 58.8703 36.7112 58.8703 37.2325V42.3869H46.3658V37.2325C46.3658 36.7111 46.79 36.287 47.3113 36.287ZM57.9248 55.3795H47.3113C46.79 55.3795 46.3658 54.9552 46.3658 54.4339V43.4239H58.8703V54.4339C58.8703 54.9552 58.4462 55.3795 57.9248 55.3795Z" fill="white"/>
<path d="M56.4884 43.9236C55.3953 43.9236 54.5059 44.813 54.5059 45.9061C54.5059 46.9993 55.3953 47.8887 56.4884 47.8887C57.5817 47.8887 58.4709 46.9993 58.4709 45.9061C58.4709 44.8129 57.5815 43.9236 56.4884 43.9236ZM56.4884 46.8516C55.9671 46.8516 55.5429 46.4274 55.5429 45.9061C55.5429 45.3848 55.9671 44.9606 56.4884 44.9606C57.0097 44.9606 57.4339 45.3848 57.4339 45.9061C57.4339 46.4274 57.0097 46.8516 56.4884 46.8516Z" fill="white"/>
</g>
<defs>
<clipPath id="clip0_314_430">
<rect width="60" height="60" fill="white"/>
</clipPath>
</defs>
</svg>
