<svg width="66" height="69" viewBox="0 0 66 69" fill="none" xmlns="http://www.w3.org/2000/svg">
<path fill-rule="evenodd" clip-rule="evenodd" d="M21.3655 40.1271L30.0056 46.2172L16.4491 67.5774C15.9418 68.3766 14.7243 68.1804 14.4939 67.2622L13.2537 62.3213L8.03352 63.2906C7.07574 63.4685 6.37722 62.4047 6.92096 61.5965L21.3655 40.1271ZM21.902 43.0378L9.9294 60.8332L13.7923 60.1159C14.3519 60.0119 14.8958 60.3611 15.0344 60.9131L15.9392 64.5178L27.2012 46.773L21.902 43.0378Z" fill="#1E1E1E"/>
<path fill-rule="evenodd" clip-rule="evenodd" d="M44.5265 40.1271L35.8864 46.2172L49.4429 67.5774C49.9502 68.3766 51.1676 68.1804 51.3981 67.2622L52.6383 62.3213L57.8584 63.2906C58.8162 63.4685 59.5147 62.4047 58.971 61.5965L44.5265 40.1271ZM43.9899 43.0378L55.9626 60.8332L52.0996 60.1159C51.54 60.0119 50.9961 60.3611 50.8576 60.9131L49.9528 64.5178L38.6908 46.773L43.9899 43.0378Z" fill="#1E1E1E"/>
<path d="M31.2062 2.97107C32.2028 1.99467 33.7972 1.99467 34.7938 2.97107L37.6115 5.7318C38.2522 6.35959 39.1745 6.60672 40.0433 6.38341L43.8639 5.4014C45.2151 5.05408 46.596 5.85132 46.9708 7.19519L48.0307 10.9949C48.2717 11.8589 48.9468 12.5341 49.8109 12.7751L53.6106 13.835C54.9545 14.2098 55.7517 15.5907 55.4044 16.9419L54.4224 20.7624C54.1991 21.6312 54.4462 22.5536 55.074 23.1943L57.8347 26.012C58.8111 27.0086 58.8111 28.603 57.8347 29.5996L55.074 32.4173C54.4462 33.058 54.1991 33.9803 54.4224 34.8491L55.4044 38.6697C55.7517 40.0209 54.9545 41.4018 53.6106 41.7766L49.8109 42.8364C48.9468 43.0774 48.2717 43.7526 48.0307 44.6167L46.9708 48.4164C46.596 49.7602 45.2151 50.5575 43.8639 50.2102L40.0433 49.2282C39.1745 49.0048 38.2522 49.252 37.6115 49.8798L34.7938 52.6405C33.7972 53.6169 32.2028 53.6169 31.2062 52.6405L28.3885 49.8798C27.7478 49.252 26.8255 49.0048 25.9567 49.2282L22.1361 50.2102C20.7849 50.5575 19.404 49.7603 19.0292 48.4164L17.9693 44.6167C17.7283 43.7526 17.0532 43.0774 16.1891 42.8364L12.3894 41.7766C11.0455 41.4018 10.2483 40.0209 10.5956 38.6697L11.5776 34.8491C11.8009 33.9803 11.5538 33.058 10.926 32.4173L8.16529 29.5996C7.18888 28.603 7.18888 27.0085 8.16529 26.012L10.926 23.1943C11.5538 22.5536 11.8009 21.6312 11.5776 20.7624L10.5956 16.9419C10.2483 15.5907 11.0455 14.2098 12.3894 13.835L16.1891 12.7751C17.0532 12.5341 17.7283 11.8589 17.9693 10.9949L19.0292 7.19519C19.404 5.85132 20.7849 5.05408 22.1361 5.4014L25.9567 6.38341C26.8255 6.60672 27.7478 6.35959 28.3885 5.7318L31.2062 2.97107Z" fill="white"/>
<path fill-rule="evenodd" clip-rule="evenodd" d="M36.2425 1.49255L39.0602 4.25327C39.1834 4.37405 39.3609 4.42159 39.528 4.37863L43.3486 3.39662C45.7911 2.76881 48.2871 4.2099 48.9647 6.6391L50.0245 10.4388C50.0709 10.605 50.2008 10.7349 50.367 10.7813L54.1667 11.8411C56.5959 12.5187 58.037 15.0147 57.4092 17.4573L56.4272 21.2778C56.3842 21.445 56.4318 21.6224 56.5526 21.7457L59.3133 24.5634C61.0782 26.3647 61.0782 29.2469 59.3133 31.0483L56.5526 33.866C56.4318 33.9893 56.3842 34.1667 56.4272 34.3339L57.4092 38.1544C58.037 40.5969 56.5959 43.093 54.1667 43.7706L50.367 44.8304C50.2008 44.8767 50.0709 45.0066 50.0245 45.1729L48.9647 48.9726C48.2871 51.4018 45.7911 52.8429 43.3486 52.2151L39.528 51.233C39.3609 51.1901 39.1834 51.2376 39.0602 51.3584L36.2425 54.1191C34.4411 55.8841 31.5589 55.8841 29.7575 54.1191L26.9398 51.3584C26.8166 51.2376 26.6391 51.1901 26.472 51.233L22.6514 52.2151C20.2089 52.8429 17.7128 51.4018 17.0353 48.9726L15.9754 45.1729C15.9291 45.0066 15.7992 44.8767 15.633 44.8304L11.8333 43.7706C9.40406 43.093 7.96296 40.5969 8.59077 38.1544L9.57278 34.3339C9.61575 34.1667 9.5682 33.9893 9.44742 33.866L6.6867 31.0483C4.92174 29.2469 4.92173 26.3647 6.6867 24.5634L9.44742 21.7457C9.5682 21.6224 9.61575 21.445 9.57278 21.2778L8.59077 17.4573C7.96296 15.0147 9.40405 12.5187 11.8332 11.8411L15.633 10.7813C15.7992 10.7349 15.9291 10.605 15.9754 10.4388L17.0353 6.6391C17.7128 4.20991 20.2089 2.76881 22.6514 3.39662L26.472 4.37863C26.6391 4.42159 26.8166 4.37405 26.9398 4.25327L29.7575 1.49255C31.5589 -0.272415 34.4411 -0.27242 36.2425 1.49255ZM34.7938 2.97113C33.7972 1.99472 32.2028 1.99472 31.2062 2.97113L28.3885 5.73185C27.7478 6.35964 26.8254 6.60677 25.9567 6.38346L22.1361 5.40145C20.7849 5.05414 19.404 5.85137 19.0292 7.19524L17.9693 10.9949C17.7283 11.859 17.0531 12.5342 16.1891 12.7752L12.3894 13.835C11.0455 14.2099 10.2483 15.5907 10.5956 16.9419L11.5776 20.7625C11.8009 21.6313 11.5538 22.5536 10.926 23.1944L8.16528 26.012C7.18887 27.0086 7.18888 28.6031 8.16528 29.5996L10.926 32.4173C11.5538 33.0581 11.8009 33.9804 11.5776 34.8492L10.5956 38.6697C10.2483 40.021 11.0455 41.4018 12.3894 41.7767L16.1891 42.8365C17.0531 43.0775 17.7283 43.7527 17.9693 44.6167L19.0292 48.4164C19.404 49.7603 20.7849 50.5575 22.1361 50.2102L25.9567 49.2282C26.8254 49.0049 27.7478 49.252 28.3885 49.8798L31.2062 52.6405C32.2028 53.617 33.7972 53.617 34.7938 52.6405L37.6115 49.8798C38.2522 49.252 39.1745 49.0049 40.0433 49.2282L43.8639 50.2102C45.2151 50.5575 46.596 49.7603 46.9708 48.4164L48.0306 44.6167C48.2716 43.7527 48.9468 43.0775 49.8109 42.8365L53.6106 41.7767C54.9545 41.4018 55.7517 40.021 55.4044 38.6697L54.4224 34.8492C54.1991 33.9804 54.4462 33.0581 55.074 32.4173L57.8347 29.5996C58.8111 28.6031 58.8111 27.0086 57.8347 26.0121L55.074 23.1944C54.4462 22.5536 54.1991 21.6313 54.4224 20.7625L55.4044 16.9419C55.7517 15.5907 54.9545 14.2099 53.6106 13.835L49.8109 12.7752C48.9468 12.5342 48.2716 11.859 48.0306 10.9949L46.9708 7.19524C46.596 5.85137 45.2151 5.05414 43.8639 5.40145L40.0433 6.38346C39.1745 6.60677 38.2522 6.35964 37.6115 5.73185L34.7938 2.97113Z" fill="#1E1E1E"/>
<path fill-rule="evenodd" clip-rule="evenodd" d="M32.7865 41.8621C40.4315 41.8621 46.6291 35.6645 46.6291 28.0194C46.6291 20.3744 40.4315 14.1768 32.7865 14.1768C25.1414 14.1768 18.9438 20.3744 18.9438 28.0194C18.9438 35.6645 25.1414 41.8621 32.7865 41.8621ZM32.7865 43.9321C41.5748 43.9321 48.6991 36.8077 48.6991 28.0194C48.6991 19.2311 41.5748 12.1068 32.7865 12.1068C23.9982 12.1068 16.8738 19.2311 16.8738 28.0194C16.8738 36.8077 23.9982 43.9321 32.7865 43.9321Z" fill="#1E1E1E"/>
<path fill-rule="evenodd" clip-rule="evenodd" d="M41.6038 21.6523C41.2518 21.2417 40.6248 21.2176 40.2424 21.6L31.1066 30.7356C30.6179 31.2243 29.8251 31.2231 29.338 30.7328L25.8016 27.1735C25.3565 26.7255 24.6075 26.7475 24.1826 27.2354C23.7874 27.6891 23.826 28.3747 24.2577 28.7744L30.1956 34.2726L41.5554 22.913C41.8984 22.57 41.9195 22.0206 41.6038 21.6523ZM38.7787 20.1363C40.0137 18.9012 42.0388 18.979 43.1754 20.3051C44.1951 21.4947 44.127 23.2688 43.0191 24.3767L31.1004 36.2952C30.626 36.7696 29.8615 36.7843 29.3692 36.3285L22.8513 30.2933C21.589 29.1244 21.5005 27.1631 22.6216 25.8759C23.8258 24.4933 25.9668 24.4029 27.27 25.7145L30.2256 28.6892L38.7787 20.1363Z" fill="#1E1E1E"/>
</svg>
