<svg width="66" height="66" viewBox="0 0 66 66" fill="none" xmlns="http://www.w3.org/2000/svg">
<path fill-rule="evenodd" clip-rule="evenodd" d="M42.6257 25.9069C42.234 25.4498 41.536 25.423 41.1103 25.8486L30.9413 36.0176C30.3973 36.5616 29.5149 36.5601 28.9726 36.0144L25.0362 32.0526C24.5407 31.5539 23.7071 31.5784 23.2341 32.1215C22.7942 32.6265 22.8372 33.3896 23.3177 33.8345L29.9272 39.9546L42.5718 27.3102C42.9537 26.9283 42.9772 26.3169 42.6257 25.9069ZM39.4811 24.2194C40.8558 22.8447 43.1099 22.9312 44.3752 24.4073C45.5101 25.7315 45.4343 27.7062 44.2011 28.9394L30.9344 42.206C30.4063 42.734 29.5553 42.7504 29.0074 42.243L21.7522 35.5252C20.3471 34.2241 20.2487 32.0409 21.4966 30.6082C22.8369 29.0692 25.2202 28.9686 26.6707 30.4285L29.9606 33.7397L39.4811 24.2194Z" fill="#1E1E1E"/>
<path fill-rule="evenodd" clip-rule="evenodd" d="M33.0706 4.4207C30.0861 7.22452 27.1829 9.23343 23.6181 10.6182C19.996 12.0253 15.8046 12.7428 10.3445 13.1183C9.08297 26.1668 10.0813 35.4851 13.5888 42.8859C17.1024 50.2996 23.2649 56.0622 32.9023 61.7213C42.6572 55.8153 48.8704 49.8771 52.3834 42.4221C55.8885 34.9838 56.8336 25.7654 55.4948 13.0271C51.1709 12.4926 47.5267 11.8269 43.9733 10.5388C40.39 9.23993 36.9814 7.33932 33.0706 4.4207ZM31.2876 0.6824C32.1319 -0.153008 33.4659 -0.228373 34.3989 0.494954C38.5404 3.70577 41.8848 5.60307 45.3121 6.84542C48.7595 8.09507 52.389 8.7191 57.1876 9.27262C58.2837 9.39905 59.1391 10.2697 59.2628 11.3507C60.8309 25.0479 60.0031 35.4683 55.9372 44.0968C51.8609 52.7471 44.6669 59.3087 34.1201 65.5716C33.3889 66.0058 32.4746 66.0123 31.7372 65.588C21.295 59.5795 14.1287 53.1982 10.0387 44.5684C5.96372 35.9702 5.0811 25.4283 6.57118 11.3895C6.693 10.2418 7.6334 9.34557 8.78636 9.27985C14.758 8.93944 18.8526 8.25484 22.1956 6.95623C25.497 5.67378 28.1965 3.74074 31.2876 0.6824Z" fill="#1E1E1E"/>
</svg>
