<svg width="125" height="125" viewBox="0 0 125 125" fill="none" xmlns="http://www.w3.org/2000/svg">
<path d="M123.047 74.707C123.047 79.5898 119.838 85.4492 115.234 85.4492H11.7188C6.88184 85.4492 1.95312 80.5664 1.95312 75.6836H0C0 81.543 5.80469 87.4023 11.7188 87.4023H115.234C121.076 87.4023 125 80.5664 125 74.707H123.047Z" fill="black"/>
<path d="M107.422 32.7148H19.5312C13.6982 32.7148 7.8125 35.4326 7.8125 41.5039V51.2695H9.76562V41.5039C9.76562 36.7822 14.6699 34.668 19.5312 34.668H107.422C112.606 34.668 115.234 36.9678 115.234 41.5039V51.2695H117.188V41.5039C117.188 35.918 113.628 32.7148 107.422 32.7148Z" fill="black"/>
<path d="M11.7188 51.2695H7.8125C1.35547 51.2695 0 53.9248 0 56.1523V75.6836H1.95312V56.1523C1.95312 54.208 3.9248 53.2227 7.8125 53.2227H11.7188C14.8223 53.2227 15.625 53.8252 15.625 56.1523V70.8008H17.5781V56.1523C17.5781 51.8613 14.7617 51.2695 11.7188 51.2695Z" fill="black"/>
<path d="M119.141 51.2695H115.234C108.777 51.2695 107.422 53.9248 107.422 56.1523V70.8008H109.375V56.1523C109.375 54.208 111.347 53.2227 115.234 53.2227H119.141C122.244 53.2227 123.047 53.8252 123.047 56.1523V75.6836H125V56.1523C125 51.8613 122.184 51.2695 119.141 51.2695Z" fill="black"/>
<path d="M109.375 68.8477H17.5781V70.8008H109.375V68.8477Z" fill="black"/>
<path d="M15.625 85.4492V90.332H12.6953V85.4492H10.7422V92.2852H17.5781V85.4492H15.625Z" fill="black"/>
<path d="M112.305 85.4492V90.332H109.375V85.4492H107.422V92.2852H114.258V85.4492H112.305Z" fill="black"/>
<path d="M21.4844 76.6602C20.0605 76.6602 17.5781 73.5566 17.5781 71.7773V70.8008H15.625V71.7773C15.625 74.4766 18.7676 78.6133 21.4844 78.6133H90.8203V76.6602H21.4844Z" fill="black"/>
<path d="M107.422 70.8008V71.7773C107.422 73.8164 106.679 76.6602 105.469 76.6602H99.6094V78.6133H105.469C108.335 78.6133 109.375 74.5254 109.375 71.7773V70.8008H107.422Z" fill="black"/>
<path d="M12.6953 41.5039V46.3867H14.6484V41.5039C14.6484 40.4268 15.0576 39.7373 16.2119 38.8691L15.0381 37.3086C13.8789 38.1797 12.6953 39.3604 12.6953 41.5039Z" fill="black"/>
<path d="M107.422 37.5977H102.539V39.5508H107.422C110.738 39.5508 111.328 40.0625 111.328 41.5039H113.281C113.281 37.5977 109.47 37.5977 107.422 37.5977Z" fill="black"/>
<path d="M97.6562 37.5977H94.7266V39.5508H97.6562V37.5977Z" fill="black"/>
<path d="M17 23L17.7351 26.5967C18.1127 28.4438 19.5562 29.8873 21.4033 30.2649L25 31L21.4033 31.7351C19.5562 32.1127 18.1127 33.5562 17.7351 35.4033L17 39L16.2649 35.4033C15.8873 33.5562 14.4438 32.1127 12.5967 31.7351L9 31L12.5967 30.2649C14.4438 29.8873 15.8873 28.4438 16.2649 26.5967L17 23Z" fill="#1E1E1E"/>
<path d="M25 31L25.5513 33.6975C25.8345 35.0829 26.9171 36.1655 28.3025 36.4487L31 37L28.3025 37.5513C26.9171 37.8345 25.8345 38.9171 25.5513 40.3025L25 43L24.4487 40.3025C24.1655 38.9171 23.0829 37.8345 21.6975 37.5513L19 37L21.6975 36.4487C23.0829 36.1655 24.1655 35.0829 24.4487 33.6975L25 31Z" fill="#1E1E1E"/>
</svg>
