<svg width="60" height="60" viewBox="0 0 60 60" fill="none" xmlns="http://www.w3.org/2000/svg">
<path d="M59.0625 35.8594C59.0625 38.2031 57.5222 41.0156 55.3125 41.0156H5.625C3.30328 41.0156 0.9375 38.6719 0.9375 36.3281H0C0 39.1406 2.78625 41.9531 5.625 41.9531H55.3125C58.1166 41.9531 60 38.6719 60 35.8594H59.0625Z" fill="#00A1F2"/>
<path d="M51.5625 15.7031H9.375C6.57516 15.7031 3.75 17.0077 3.75 19.9219V24.6094H4.6875V19.9219C4.6875 17.6555 7.04156 16.6406 9.375 16.6406H51.5625C54.0511 16.6406 55.3125 17.7445 55.3125 19.9219V24.6094H56.25V19.9219C56.25 17.2406 54.5414 15.7031 51.5625 15.7031Z" fill="#00A1F2"/>
<path d="M5.625 24.6094H3.75C0.650625 24.6094 0 25.8839 0 26.9531V36.3281H0.9375V26.9531C0.9375 26.0198 1.88391 25.5469 3.75 25.5469H5.625C7.11469 25.5469 7.5 25.8361 7.5 26.9531V33.9844H8.4375V26.9531C8.4375 24.8934 7.08562 24.6094 5.625 24.6094Z" fill="#00A1F2"/>
<path d="M57.1875 24.6094H55.3125C52.2131 24.6094 51.5625 25.8839 51.5625 26.9531V33.9844H52.5V26.9531C52.5 26.0198 53.4464 25.5469 55.3125 25.5469H57.1875C58.6772 25.5469 59.0625 25.8361 59.0625 26.9531V36.3281H60V26.9531C60 24.8934 58.6481 24.6094 57.1875 24.6094Z" fill="#00A1F2"/>
<path d="M52.5 33.0469H8.4375V33.9844H52.5V33.0469Z" fill="#00A1F2"/>
<path d="M7.5 41.0156V43.3594H6.09375V41.0156H5.15625V44.2969H8.4375V41.0156H7.5Z" fill="#00A1F2"/>
<path d="M53.9062 41.0156V43.3594H52.5V41.0156H51.5625V44.2969H54.8438V41.0156H53.9062Z" fill="#00A1F2"/>
<path d="M10.3125 36.7969C9.62906 36.7969 8.4375 35.3072 8.4375 34.4531V33.9844H7.5V34.4531C7.5 35.7487 9.00844 37.7344 10.3125 37.7344H43.5938V36.7969H10.3125Z" fill="#00A1F2"/>
<path d="M51.5625 33.9844V34.4531C51.5625 35.4319 51.2058 36.7969 50.625 36.7969H47.8125V37.7344H50.625C52.0008 37.7344 52.5 35.7722 52.5 34.4531V33.9844H51.5625Z" fill="#00A1F2"/>
<path d="M6.09375 19.922V22.2657H7.03125V19.922C7.03125 19.4049 7.22766 19.074 7.78172 18.6573L7.21828 17.9082C6.66188 18.3263 6.09375 18.893 6.09375 19.922Z" fill="#00A1F2"/>
<path d="M51.5625 18.0469H49.2188V18.9844H51.5625C53.1544 18.9844 53.4375 19.23 53.4375 19.9219H54.375C54.375 18.0469 52.5455 18.0469 51.5625 18.0469Z" fill="#00A1F2"/>
<path d="M46.875 18.0469H45.4688V18.9844H46.875V18.0469Z" fill="#00A1F2"/>
<path d="M8.16031 11.04L8.18947 11.1827C8.56701 13.0298 10.0105 14.4733 11.8577 14.8509L12.0003 14.88L11.8577 14.9092C10.0105 15.2867 8.56701 16.7303 8.18947 18.5774L8.16031 18.72L8.13116 18.5774C7.75362 16.7303 6.3101 15.2867 4.46296 14.9092L4.32031 14.88L4.46296 14.8509C6.3101 14.4733 7.75362 13.0298 8.13116 11.1827L8.16031 11.04Z" fill="#00A1F2"/>
<path d="M12.0001 14.8799L12.022 14.9869C12.3051 16.3722 13.3878 17.4549 14.7731 17.738L14.8801 17.7599L14.7731 17.7817C13.3878 18.0649 12.3051 19.1475 12.022 20.5329L12.0001 20.6399L11.9783 20.5329C11.6951 19.1475 10.6125 18.0649 9.2271 17.7817L9.12012 17.7599L9.2271 17.738C10.6125 17.4549 11.6951 16.3722 11.9783 14.9869L12.0001 14.8799Z" fill="#00A1F2"/>
</svg>
