<svg width="108" height="108" viewBox="0 0 108 108" fill="none" xmlns="http://www.w3.org/2000/svg">
<g clip-path="url(#clip0_19_243)">
<path d="M60.425 22.1792C66.5399 22.1792 71.5146 17.2045 71.5146 11.0896C71.5146 4.9747 66.5399 0 60.425 0C54.3101 0 49.3354 4.9747 49.3354 11.0896C49.3354 17.2045 54.3101 22.1792 60.425 22.1792ZM60.425 1.86664C65.5106 1.86664 69.648 6.00399 69.648 11.0896C69.648 16.1752 65.5106 20.3125 60.425 20.3125C55.3394 20.3125 51.2021 16.1752 51.2021 11.0896C51.2021 6.00399 55.3394 1.86664 60.425 1.86664Z" fill="black"/>
<path d="M66.5174 69.733C66.0175 69.8589 65.7143 70.3662 65.8403 70.866L67.5297 77.5734C67.6362 77.9968 68.0164 78.279 68.4341 78.279C68.5094 78.279 68.5862 78.2697 68.6627 78.2504C69.1625 78.1246 69.4658 77.6173 69.3397 77.1175L67.6503 70.4101C67.5245 69.9105 67.0178 69.6072 66.5174 69.733Z" fill="black"/>
<path d="M104.265 63.45H98.5816C101.496 53.6095 100.867 45.3524 96.7084 38.896C93.4505 33.839 88.7558 31.0111 85.1774 29.4879C85.1405 28.713 84.8291 27.949 84.2359 27.3609C82.9785 26.1139 80.9412 26.1223 79.6943 27.3802L72.8501 34.2826L71.312 32.8597C70.9118 27.1426 66.2057 22.7197 60.4251 22.7197C55.1499 22.7197 50.4915 26.7563 49.5889 32.1091C49.5803 32.1596 49.576 32.211 49.576 32.2622L49.518 57.8112L13.8397 93.7884H4.13098C1.94459 93.7884 0.166016 95.5672 0.166016 97.7533V100.952C0.166016 103.138 1.94481 104.917 4.13098 104.917H23.6606C25.847 104.917 27.6256 103.138 27.6256 100.952V97.7533C27.6256 95.5672 25.8468 93.7884 23.6606 93.7884H22.9823L48.6554 67.8373L38.7071 98.0351C38.0941 99.8943 38.2422 101.881 39.1234 103.628C40.0049 105.376 41.514 106.676 43.3734 107.288C44.1322 107.538 44.9023 107.657 45.6608 107.657C48.739 107.657 51.6123 105.701 52.6271 102.622L59.7805 80.9097L65.3488 102.5C66.1838 105.739 69.0997 108 72.4399 108C73.0558 108 73.6734 107.922 74.2747 107.766C76.1703 107.277 77.7622 106.08 78.757 104.394C79.7516 102.708 80.03 100.736 79.541 98.8404L70.9228 65.4203C71.202 64.4448 71.3449 63.4344 71.3449 62.4124V53.5491L78.4034 45.872C80.1671 43.963 80.0544 40.9643 78.1489 39.1848L77.5681 38.6474L81.4109 34.7721C87.0405 37.2156 97.9491 44.5563 92.1555 63.4502H85.1613C83.1937 63.4502 81.5928 65.0511 81.5928 67.0188V97.9811C81.5928 99.9487 83.1937 101.55 85.1613 101.55H104.266C106.233 101.55 107.834 99.9487 107.834 97.9811V67.0186C107.834 65.0509 106.233 63.45 104.265 63.45ZM51.4424 32.3454C52.2147 27.9885 56.1456 24.5864 60.4251 24.5864C64.4177 24.5864 67.793 27.1309 69.0002 30.721L64.2484 26.325C63.3671 25.5023 62.2184 25.0491 61.0134 25.0491C59.7037 25.0491 58.4398 25.5981 57.5465 26.5553C55.7622 28.4663 55.8656 31.4729 57.7795 33.2596L66.1658 41.0235L51.3886 55.9246L51.4424 32.3454ZM25.759 97.7533V98.3658H8.12844C7.61303 98.3658 7.19512 98.7835 7.19512 99.2991C7.19512 99.8148 7.61303 100.232 8.12844 100.232H25.7592V100.952C25.7592 102.109 24.8177 103.05 23.6609 103.05H4.13098C2.97388 103.05 2.03265 102.109 2.03265 100.952V97.7533C2.03265 96.5962 2.9741 95.655 4.13098 95.655H23.6606C24.8177 95.655 25.759 96.5962 25.759 97.7533ZM16.4681 93.7884L67.5365 42.2924L68.2351 42.9389L61.8387 49.8782C61.0053 50.7707 60.5597 51.9256 60.5676 53.142L20.3562 93.7884H16.4681ZM56.1388 66.7898L57.1896 70.8641C54.5089 69.8401 52.4457 67.5867 51.6881 64.7718L61.0859 55.2722C61.3331 55.7548 61.6603 56.1987 62.0686 56.5799C62.6194 57.094 63.2749 57.4636 63.9833 57.6687C63.7382 57.6439 63.4907 57.6296 63.2402 57.6296C62.6244 57.6296 62.0071 57.7082 61.4058 57.8635C57.4927 58.8726 55.13 62.8768 56.1388 66.7898ZM50.8543 102.037C49.9117 104.897 46.8175 106.457 43.9576 105.516C43.8454 105.479 43.7375 105.433 43.6288 105.389L50.8035 83.5392C50.9643 83.0495 50.6977 82.522 50.208 82.3613C49.7187 82.2005 49.191 82.4671 49.03 82.9568L41.9983 104.372C41.5088 103.928 41.0968 103.396 40.7902 102.788C40.1334 101.486 40.0231 100.005 40.4799 98.6197L50.7016 67.3882C52.1159 70.1521 54.6673 72.2197 57.7393 72.9958L58.9175 77.564L50.8543 102.037ZM77.1495 103.446C76.4081 104.702 75.2218 105.595 73.8089 105.959C73.3596 106.075 72.899 106.133 72.4401 106.133C69.9515 106.133 67.779 104.448 67.1566 102.034L57.9464 66.3235C57.1945 63.4076 58.9555 60.4232 61.872 59.6708C62.3211 59.5551 62.7816 59.4963 63.2402 59.4963C65.729 59.4963 67.9019 61.1821 68.5245 63.596L77.7337 99.3066C78.0982 100.72 77.8907 102.189 77.1495 103.446ZM69.4783 61.12C68.4723 59.4833 66.8553 58.299 64.9808 57.84C65.0879 57.8472 65.1951 57.8551 65.3034 57.8551C66.6131 57.8551 67.8769 57.3061 68.7751 56.3438L69.4783 55.5792V61.12ZM77.0307 44.6068L67.4059 55.0754C66.8562 55.6646 66.1098 55.9887 65.3038 55.9887C65.3038 55.9887 65.3038 55.9887 65.3036 55.9887C64.5732 55.9887 63.8766 55.714 63.3425 55.2155C62.781 54.6913 62.4575 53.98 62.4312 53.2125C62.4048 52.4452 62.6789 51.7135 63.2072 51.148L70.239 43.5198C70.5877 43.1412 70.5644 42.552 70.1867 42.2022L59.051 31.8931C57.8924 30.8113 57.8296 28.9883 58.9116 27.8295C59.4614 27.2403 60.2081 26.9162 61.014 26.9162C61.7442 26.9162 62.4408 27.1909 62.9782 27.6927L76.8785 40.5525C78.0321 41.6297 78.1013 43.4482 77.0307 44.6068ZM74.2211 35.551L81.0198 28.6945C81.5418 28.1683 82.395 28.1644 82.9216 28.6864C83.4482 29.2086 83.4519 30.062 82.9299 30.5886L76.1971 37.3788L74.2211 35.551ZM82.814 33.3567L84.2555 31.9029C84.4333 31.7235 84.5827 31.5267 84.7094 31.3201C91.1179 34.1387 103.099 42.411 96.6297 63.4502H94.1056C99.7585 44.2265 89.0292 36.2568 82.814 33.3567ZM85.1611 65.3167H104.265C105.204 65.3167 105.967 66.0802 105.967 67.0186V76.2964H83.4592V67.0186C83.4592 66.08 84.2227 65.3167 85.1611 65.3167ZM104.265 99.683H85.1611C84.2227 99.683 83.4592 98.9194 83.4592 97.9811V78.1631H105.967V97.9811C105.967 98.9194 105.204 99.683 104.265 99.683Z" fill="black"/>
<path d="M101.68 79.0625C99.7127 79.0625 98.1118 80.6634 98.1118 82.6311C98.1118 84.5987 99.7127 86.1996 101.68 86.1996C103.648 86.1996 105.249 84.5987 105.249 82.6311C105.249 80.6632 103.648 79.0625 101.68 79.0625ZM101.68 84.333C100.742 84.333 99.9785 83.5694 99.9785 82.6311C99.9785 81.6927 100.742 80.9291 101.68 80.9291C102.619 80.9291 103.382 81.6927 103.382 82.6311C103.382 83.5694 102.619 84.333 101.68 84.333Z" fill="black"/>
</g>
<defs>
<clipPath id="clip0_19_243">
<rect width="108" height="108" fill="white"/>
</clipPath>
</defs>
</svg>
