<svg width="67" height="67" viewBox="0 0 67 67" fill="none" xmlns="http://www.w3.org/2000/svg">
<g clip-path="url(#clip0_123_1208)">
<path d="M53.1291 7.78674H53.1179C52.5374 7.78674 52.0726 8.25725 52.0726 8.83772C52.0726 9.41818 52.5487 9.88869 53.1291 9.88869C53.7094 9.88869 54.1801 9.41818 54.1801 8.83772C54.1801 8.25725 53.7094 7.78674 53.1291 7.78674Z" fill="black"/>
<path d="M38.0004 50.7248L27.9974 46.557C27.552 46.3715 27.2644 45.9399 27.2644 45.4574V43.3356L29.1347 42.2966C30.7372 41.4063 31.7929 39.7849 31.9588 37.9593L31.9629 37.9141H32.9395C34.7553 37.9141 36.2326 36.4368 36.2326 34.621V32.5968C36.527 31.8849 37.3535 29.6062 37.3535 26.4626C37.3535 22.1191 35.6521 18.0209 32.5627 14.9227C31.3807 13.7374 30.0436 12.7522 28.5932 11.9838C28.5427 8.42625 24.9811 5.54456 20.6085 5.54456C16.2358 5.54456 12.6743 8.42625 12.6236 11.9838C11.1732 12.7521 9.83616 13.7373 8.65409 14.9227C5.56473 18.0209 3.86329 22.1189 3.86329 26.4626C3.86329 29.6062 4.68984 31.8847 4.98426 32.5968V34.621C4.98426 36.4368 6.46153 37.9141 8.2773 37.9141H9.25389L9.25789 37.9593C9.42379 39.7849 10.4797 41.4064 12.0821 42.2966L13.9524 43.3356V45.4574C13.9524 45.9398 13.6647 46.3714 13.2194 46.557L3.21644 50.7248C1.56618 51.4124 0.5 53.0117 0.5 54.7992V61.5253C0.5 63.3411 1.97727 64.8184 3.79304 64.8184H37.4236C39.2394 64.8184 40.7167 63.3411 40.7167 61.5253V54.7992C40.7166 53.0117 39.6504 51.4124 38.0004 50.7248ZM34.1306 34.6209C34.1306 35.2777 33.5963 35.812 32.9395 35.812H32.1541L32.5745 31.1877H32.9395C33.5963 31.1877 34.1306 31.7221 34.1306 32.3788V34.6209ZM20.6083 7.6465C23.3611 7.6465 25.6776 9.07143 26.3176 10.9894C24.5173 10.358 22.5929 10.0287 20.6083 10.0287C18.6238 10.0287 16.6995 10.358 14.8991 10.9894C15.539 9.07143 17.8554 7.6465 20.6083 7.6465ZM8.27704 35.812C7.62027 35.812 7.08595 35.2777 7.08595 34.6209V32.3788C7.08595 31.7221 7.62027 31.1877 8.27704 31.1877H8.64211L9.06247 35.812H8.27704ZM13.1029 40.4592C12.1089 39.907 11.4539 38.9012 11.3511 37.7689L10.5509 28.9681C11.9256 28.9595 14.336 28.8424 17.1548 28.2584C22.9195 27.064 27.6225 24.4583 30.7553 20.7231C31.1284 20.2785 31.0702 19.6156 30.6254 19.2426C30.1807 18.8696 29.5178 18.9277 29.1448 19.3726C22.3076 27.5246 9.63778 26.8568 9.46453 26.8462V26.8473C9.41142 26.8441 9.35766 26.8435 9.30301 26.8485C8.72499 26.9011 8.29896 27.4122 8.35155 27.9902L8.45107 29.0861H8.27704C7.54125 29.0861 6.86101 29.3288 6.31213 29.7381C6.1216 28.8533 5.96485 27.739 5.96485 26.4626C5.96485 22.6794 7.44843 19.1085 10.1422 16.407C12.8921 13.6493 16.609 12.1305 20.6082 12.1305C24.6074 12.1305 28.3242 13.6491 31.0742 16.407C33.768 19.1082 35.2516 22.6794 35.2516 26.4626C35.2516 27.7389 35.095 28.8534 34.9043 29.7382C34.3554 29.3288 33.6753 29.0861 32.9394 29.0861H32.7654L32.865 27.9901C32.8934 27.6796 32.782 27.3724 32.5614 27.1518L30.3194 24.9098C29.9089 24.4993 29.2435 24.4993 28.8332 24.9098C28.4228 25.3202 28.4228 25.9855 28.8332 26.3959L30.7272 28.2899L29.9789 36.5212C29.1207 37.2804 26.3986 39.1752 20.6082 39.1752C20.0278 39.1752 19.5572 39.6457 19.5572 40.2261C19.5572 40.8066 20.0278 41.2771 20.6082 41.2771C24.6319 41.2771 27.3853 40.4346 29.1712 39.5453C28.889 39.9138 28.5318 40.227 28.1138 40.4593L22.2755 43.7029C21.2315 44.2828 19.985 44.2828 18.9411 43.7029L13.1029 40.4592ZM14.0278 48.497C15.2589 47.9841 16.0542 46.7909 16.0542 45.4574V44.5032L17.9203 45.54C18.7619 46.0075 19.685 46.2414 20.6083 46.2414C21.5317 46.2414 22.4548 46.0077 23.2964 45.54L25.1625 44.5032V45.4574C25.1625 46.7912 25.9578 47.9842 27.1889 48.497L28.2913 48.9563C26.3198 51.2452 24.4144 52.3824 23.1239 52.9385C21.6966 53.5535 20.7082 53.604 20.6082 53.6078C20.5082 53.6042 19.5199 53.5535 18.0925 52.9385C16.802 52.3825 14.8968 51.2452 12.9251 48.9563L14.0278 48.497ZM7.22607 62.7165H3.79304C3.13626 62.7165 2.60195 62.1822 2.60195 61.5254V54.7994C2.60195 54.5096 2.6557 54.2294 2.75521 53.9697L6.3584 56.8525C6.90999 57.2936 7.22607 57.9516 7.22607 58.6579V62.7165ZM31.8885 58.6577V62.7164H9.32802V58.6577C9.32802 57.3093 8.72422 56.0531 7.67144 55.2108L4.33006 52.5377L10.8944 49.8026C14.3574 54.0859 17.8579 55.2643 19.5572 55.5878V59.1433C19.5572 59.7237 20.0278 60.1942 20.6082 60.1942C21.1887 60.1942 21.6592 59.7237 21.6592 59.1433V55.5878C23.3587 55.2643 26.859 54.0859 30.3221 49.8026L36.8864 52.5377L33.545 55.2108C32.4923 56.0531 31.8885 57.3094 31.8885 58.6577ZM38.6146 61.5254C38.6146 62.1822 38.0803 62.7165 37.4235 62.7165H33.9904V58.6578C33.9904 57.9515 34.3066 57.2936 34.858 56.8522L38.4612 53.9696C38.5607 54.2292 38.6145 54.5095 38.6145 54.7992V61.5254H38.6146Z" fill="black"/>
<path d="M19.3131 31.9228C18.8109 30.8806 17.5996 30.2069 16.2272 30.2069C14.8547 30.2069 13.6435 30.8804 13.1413 31.9228C12.8894 32.4456 13.1091 33.0738 13.632 33.3258C14.1549 33.5778 14.783 33.3579 15.0351 32.835C15.1579 32.5801 15.6176 32.3089 16.2273 32.3089C16.837 32.3089 17.2966 32.5799 17.4196 32.835C17.6006 33.2111 17.9762 33.4302 18.3672 33.4302C18.5202 33.4302 18.6756 33.3966 18.8226 33.3258C19.3453 33.0738 19.565 32.4458 19.3131 31.9228Z" fill="black"/>
<path d="M28.0752 31.9228C27.5731 30.8806 26.3619 30.2069 24.9893 30.2069C23.6167 30.2069 22.4057 30.8804 21.9034 31.9228C21.6514 32.4458 21.8712 33.0738 22.3942 33.3258C22.917 33.5778 23.5452 33.3579 23.7972 32.835C23.92 32.5801 24.3797 32.3089 24.9895 32.3089C25.5992 32.3089 26.0587 32.5799 26.1817 32.835C26.3627 33.2111 26.7383 33.4302 27.1293 33.4302C27.2823 33.4302 27.4378 33.3966 27.5847 33.3258C28.1074 33.0738 28.3272 32.4458 28.0752 31.9228Z" fill="black"/>
<path d="M53.1179 2.18164C45.7389 2.18164 39.7357 8.1848 39.7357 15.5638C39.7357 19.4355 41.3752 23.0378 44.2645 25.5828C42.8146 27.9562 41.2412 29.324 41.2251 29.3379C40.8789 29.6336 40.7625 30.1187 40.9367 30.5393C41.1005 30.9342 41.4852 31.188 41.9073 31.188C41.9349 31.188 41.9627 31.1868 41.9907 31.1848C42.1635 31.171 46.11 30.834 49.6108 28.4799C50.7518 28.7893 51.9291 28.9461 53.118 28.9461C60.497 28.9461 66.5001 22.9429 66.5001 15.5639C66.5 8.1848 60.4968 2.18164 53.1179 2.18164ZM53.1179 26.844C51.9667 26.844 50.8289 26.6701 49.7359 26.3269C49.4177 26.2272 49.071 26.284 48.8016 26.4809C47.5076 27.4254 46.0873 28.035 44.8677 28.4253C45.4133 27.7057 45.9959 26.8408 46.5421 25.8423C46.7906 25.3879 46.6711 24.8202 46.2604 24.5045C43.4496 22.3452 41.8377 19.0863 41.8377 15.5638C41.8377 9.3438 46.8979 4.28359 53.1179 4.28359C59.3379 4.28359 64.3981 9.3438 64.3981 15.5638C64.3981 21.7838 59.3379 26.844 53.1179 26.844Z" fill="black"/>
<path d="M54.2388 21.2389H54.1687V14.3727H54.2388C54.8193 14.3727 55.2898 13.9022 55.2898 13.3217C55.2898 12.7413 54.8193 12.2708 54.2388 12.2708H51.9968C51.4163 12.2708 50.9458 12.7413 50.9458 13.3217C50.9458 13.9022 51.4163 14.3727 51.9968 14.3727H52.0669V21.2389H51.9968C51.4163 21.2389 50.9458 21.7094 50.9458 22.2899C50.9458 22.8703 51.4163 23.3408 51.9968 23.3408H54.2388C54.8193 23.3408 55.2898 22.8703 55.2898 22.2899C55.2898 21.7095 54.8193 21.2389 54.2388 21.2389Z" fill="black"/>
</g>
<defs>
<clipPath id="clip0_123_1208">
<rect width="66" height="66" fill="white" transform="translate(0.5 0.5)"/>
</clipPath>
</defs>
</svg>
