<svg width="66" height="66" viewBox="0 0 66 66" fill="none" xmlns="http://www.w3.org/2000/svg">
<g clip-path="url(#clip0_123_1229)">
<path d="M0.907242 27.8621C2.66239 15.3954 12.128 5.30629 24.4617 2.75644C34.6827 0.64347 45.2056 4.04941 52.2575 11.5111L52.4888 6.58586C52.5268 5.775 53.2129 5.1513 54.0259 5.18658C54.8368 5.22463 55.4632 5.91284 55.4252 6.7237L55.0169 15.423C55.0159 15.4474 55.0144 15.4717 55.0123 15.496C54.9947 15.6985 54.9364 15.8885 54.8459 16.0582C54.7505 16.2378 54.6165 16.4 54.4456 16.5314C54.3338 16.6178 54.2095 16.6882 54.0759 16.7397C54.0756 16.7398 54.0754 16.7398 54.0751 16.74C54.0742 16.7402 54.0736 16.7405 54.0728 16.7408C54.0723 16.741 54.0718 16.7411 54.0711 16.7413C54.0705 16.7415 54.0698 16.7418 54.0692 16.742C54.0685 16.7423 54.0677 16.7424 54.0671 16.7428C54.0666 16.7429 54.0661 16.7431 54.0656 16.7433C54.063 16.7442 54.0605 16.7452 54.0579 16.7462C54.0566 16.7467 54.0551 16.7472 54.054 16.7477C54.054 16.7477 54.0538 16.7477 54.0537 16.7477C54.0524 16.7482 54.0512 16.7487 54.0499 16.7491H54.0497C53.8454 16.8235 53.6299 16.8501 53.4189 16.8313C53.2159 16.8135 53.0254 16.7549 52.8554 16.6639C52.681 16.5708 52.5229 16.4411 52.3937 16.2768C52.3787 16.2577 52.364 16.2381 52.3498 16.2184C46.136 7.64578 35.4241 3.49185 25.0572 5.63471C13.9357 7.93436 5.4007 17.0314 3.81834 28.2719C3.71496 29.0063 3.08554 29.5371 2.36467 29.5371C2.2964 29.5371 2.22748 29.5323 2.15791 29.5225C1.35407 29.4094 0.794227 28.6659 0.907242 27.8621ZM44.2098 18.0612C41.8576 15.8068 39.0335 14.2004 35.9699 13.3359C36.4586 14.1129 36.9377 15.0446 37.396 16.1591C38.9344 19.9015 39.8794 24.9464 40.0569 30.3646C40.0835 31.1759 39.4474 31.8552 38.636 31.8818C37.8262 31.9104 37.1455 31.2723 37.1188 30.4608C37.0914 29.6223 37.0447 28.8041 36.9808 28.0081C34.86 28.225 32.7056 28.3347 30.5591 28.3347C28.4234 28.3347 26.3129 28.2299 24.2331 28.0212C24.1291 29.3591 24.0727 30.7722 24.0727 32.2543C24.0727 41.9508 28.1264 50.0921 30.3003 52.3027C30.3079 52.3106 30.3158 52.3184 30.3233 52.3266C30.3236 52.3269 30.3239 52.3274 30.3244 52.3277L30.3246 52.3279C30.4628 52.4737 30.5653 52.6408 30.6323 52.8182C30.7033 53.0055 30.737 53.2105 30.7247 53.4233C30.7247 53.4241 30.7246 53.425 30.7246 53.4259C30.7246 53.4262 30.7246 53.4265 30.7246 53.4268C30.7224 53.4615 30.7192 53.4959 30.7146 53.5302C30.7146 53.5309 30.7144 53.5315 30.7144 53.5322C30.7144 53.5328 30.7143 53.5335 30.7143 53.5341C30.696 53.672 30.6586 53.8033 30.6053 53.9258C30.6052 53.9261 30.6052 53.9264 30.605 53.9268C30.6047 53.9274 30.6045 53.9281 30.6042 53.9287C30.5315 54.095 30.4265 54.2503 30.2895 54.3853C30.1348 54.5377 29.9548 54.6489 29.7634 54.7188C29.6055 54.7768 29.4355 54.8083 29.2591 54.8083C29.2385 54.8083 29.2181 54.8078 29.1974 54.807C29.1838 54.8065 29.1703 54.8057 29.1567 54.8049C17.3004 54.0512 8.01391 44.1476 8.01391 32.2543C8.01391 19.7945 18.1509 9.65766 30.611 9.65766C30.612 9.65766 30.613 9.65766 30.6141 9.65766C36.468 9.65848 42.0191 11.8892 46.2446 15.9389C46.8306 16.5006 46.8503 17.431 46.2887 18.0171C45.7264 18.6033 44.7958 18.6229 44.2098 18.0612ZM11.3212 36.0453C14.6083 37.1187 18.0634 37.9107 21.6148 38.4061C21.3093 36.4438 21.1329 34.3803 21.1329 32.2545C21.1329 30.7247 21.1975 29.1817 21.3259 27.6586C18.1775 27.1884 15.1087 26.4738 12.142 25.5185C11.373 27.6206 10.9531 29.8893 10.9531 32.2545C10.9531 33.5492 11.0797 34.8169 11.3212 36.0453ZM22.2059 41.4488C18.8135 41.0284 15.496 40.3499 12.3099 39.4257C14.6298 45.3225 19.7235 49.8635 26.0186 51.3718C24.5759 48.9074 23.1431 45.4664 22.2059 41.4488ZM25.2515 13.3398C20.1425 14.7892 15.8741 18.257 13.3667 22.8235C16.0471 23.6677 18.8153 24.3059 21.6543 24.7354C22.2905 20.2394 23.5018 16.1294 25.2515 13.3398ZM30.6104 12.5973C28.4656 12.5973 25.6554 17.2136 24.5493 25.0983C26.5242 25.2958 28.5296 25.3951 30.5589 25.3951C32.5975 25.3951 34.6431 25.2914 36.6567 25.0862C35.5762 17.5193 32.9055 12.5973 30.6104 12.5973ZM31.9468 58.9438C18.5515 59.659 6.85633 50.6495 4.12651 37.5183C4.10871 37.4205 4.08095 37.3256 4.04437 37.2349C3.96271 37.0311 3.83826 36.8529 3.68377 36.7089C3.53058 36.5655 3.34554 36.4536 3.13797 36.386C2.97824 36.3334 2.80791 36.308 2.63398 36.3137C2.45955 36.3189 2.29085 36.3553 2.13456 36.4179C1.92862 36.4999 1.74881 36.6256 1.60378 36.7817C1.46153 36.9344 1.35081 37.1183 1.28336 37.3243C1.25265 37.4172 1.23126 37.5139 1.21966 37.6127L0.0140698 46.2171C-0.0984545 47.021 0.461881 47.764 1.26572 47.8767C2.06923 47.9883 2.81264 47.4289 2.92533 46.6251L3.25147 44.2977C5.27103 48.7955 8.3817 52.7506 12.3406 55.7755C17.5659 59.7679 23.9636 61.922 30.5122 61.922C31.0414 61.922 31.5726 61.908 32.1033 61.8796C32.9138 61.8363 33.5359 61.1441 33.4926 60.3335C33.4498 59.5226 32.7595 58.9017 31.9468 58.9438ZM63.2202 51.0023C62.5423 53.0248 61.9405 54.7918 61.3805 56.4051C60.7679 58.1689 60.1432 59.9227 59.5238 61.6178C59.0573 62.8998 57.9554 63.7543 56.6793 63.8439C56.6066 63.855 56.5323 63.8609 56.4565 63.8609H41.13C39.3107 63.8609 37.8306 62.2844 37.8306 60.3465C37.8306 60.3207 37.8309 60.2949 37.8314 60.2689C37.7109 57.5982 36.7135 56.4877 35.8329 55.5073C35.4481 55.0785 35.0895 54.6787 34.7589 54.1946C32.6809 51.1514 31.7291 48.5816 30.6272 45.6062C30.1588 44.3419 29.6787 43.046 28.9923 41.4384C28.6493 40.6348 28.0999 38.761 28.053 37.7673C27.9688 36.0145 28.4706 34.3671 29.3955 33.3621C30.0675 32.6317 30.9455 32.2275 31.9342 32.1929C33.0631 32.1552 34.2727 32.4803 35.0942 33.0444C36.2435 33.8339 37.259 35.0975 38.1987 36.9068C38.5836 37.6489 38.8232 38.4492 39.0344 39.1554C39.158 39.5686 39.2748 39.9589 39.3963 40.2512C39.513 40.5331 39.6288 40.7787 39.741 40.9825C39.8932 41.2587 40.0422 41.3915 40.1802 41.3781C40.5367 41.3426 41.2197 40.797 41.5533 39.7386C42.4967 36.7452 43.5407 32.6234 43.6417 30.0314C43.7721 26.7106 43.8953 23.5743 45.6958 21.6773C47.5999 19.6697 49.8529 19.1527 52.3918 20.1402C52.4194 20.1505 52.4466 20.1618 52.4736 20.1739C53.0094 20.4121 53.337 20.9374 53.3454 21.4951C53.3669 21.8897 53.4027 22.327 53.4466 22.7936C54.167 22.6675 54.8684 22.7188 55.5449 22.9489C57.0149 23.4488 58.2228 24.7661 59.1352 26.8646C59.8484 28.5033 60.2528 29.5314 60.4525 30.3754C60.7277 30.1954 61.0645 30.1062 61.4166 30.1453C62.0223 30.2119 63.3915 30.8077 63.8111 31.581C64.9246 33.62 65.5671 35.3377 65.8312 36.9833C66.454 41.0619 65.3048 44.7803 63.2202 51.0023ZM62.9266 37.4384C62.7287 36.2051 62.2289 34.8592 61.3597 33.2295C61.2448 33.1619 61.0945 33.0864 61.0099 33.0559C60.8362 33.0265 60.6738 32.9673 60.5281 32.8842C60.5077 33.0505 60.484 33.2249 60.4579 33.4104C60.4122 33.7361 60.3493 34.1008 60.2662 34.5247C60.071 35.5064 59.8953 36.4672 59.7254 37.3963C59.3137 39.6483 58.9247 41.7753 58.3526 43.6818C58.1192 44.4594 57.2999 44.9 56.5223 44.6671C55.7448 44.4337 55.3037 43.6144 55.5371 42.8368C56.0624 41.0862 56.4371 39.0371 56.8338 36.8675C57.0056 35.9274 57.1834 34.9554 57.3822 33.9549C57.4544 33.5871 57.5084 33.274 57.5468 33.001C57.7851 31.3126 57.8045 31.1748 56.4392 28.0375C55.8867 26.7667 55.2328 25.9484 54.598 25.7325C54.4897 25.6956 54.2235 25.6054 53.7533 25.7375C54.0324 28.4522 54.2485 31.3414 53.7631 33.5257C52.939 37.2328 52.26 40.2285 51.6488 42.2446C51.4135 43.0215 50.593 43.4605 49.8158 43.2249C49.0389 42.9894 48.6001 42.1687 48.8356 41.3918C49.4158 39.4776 50.1109 36.4079 50.8935 32.8878C51.3472 30.8467 50.9897 27.5173 50.7026 24.8421C50.6198 24.0699 50.5398 23.3257 50.4807 22.6388C49.4843 22.4717 48.6745 22.8086 47.8282 23.701C46.7892 24.7957 46.6823 27.5159 46.579 30.1467C46.4378 33.7731 44.8425 39.0817 44.3571 40.6224C43.716 42.657 42.1542 44.1363 40.4711 44.3036C39.1116 44.4383 37.9063 43.7452 37.166 42.4006C37.0016 42.1019 36.8386 41.758 36.681 41.3778C36.502 40.9468 36.3642 40.4861 36.2182 39.9981C36.0356 39.3879 35.8469 38.757 35.5897 38.2614C34.8782 36.8912 34.1715 35.9772 33.4297 35.4677C33.1841 35.299 32.6517 35.1296 32.1202 35.1296C32.0923 35.1296 32.0644 35.1301 32.0363 35.1311C31.8356 35.1381 31.6971 35.2025 31.5584 35.3531C31.1727 35.7721 30.944 36.6864 30.9893 37.6279C31.0121 38.1126 31.4149 39.6264 31.6958 40.2847C32.4103 41.958 32.9252 43.348 33.3797 44.5743C34.4614 47.4947 35.3122 49.7924 37.1868 52.5374C37.4076 52.8608 37.6896 53.175 38.0161 53.539C39.0543 54.695 40.6177 56.4353 40.7709 60.1995C40.7725 60.2384 40.7725 60.2773 40.7709 60.3161L40.7702 60.347C40.7702 60.6978 40.9834 60.9217 41.13 60.9217H56.2926C56.3461 60.9157 56.4007 60.9126 56.4559 60.9126C56.5506 60.9126 56.6866 60.8182 56.7621 60.6111C57.3768 58.9289 57.9963 57.1901 58.6035 55.4412C59.1599 53.8382 59.7584 52.0806 60.4329 50.0686C62.3731 44.2773 63.4456 40.8352 62.9266 37.4384Z" fill="black"/>
</g>
<defs>
<clipPath id="clip0_123_1229">
<rect width="66" height="66" fill="white"/>
</clipPath>
</defs>
</svg>
